<svg id="visual" viewBox="0 0 900 675" width="900" height="675" xmlns="http://www.w3.org/2000/svg" xmlns:xlink="http://www.w3.org/1999/xlink" version="1.1"><g><g transform="translate(296 498)"><path d="M137.9 -83.3C160.3 -40.8 147.4 18.4 118.5 67C89.6 115.6 44.8 153.6 -5 156.5C-54.8 159.4 -109.6 127.1 -131.5 82.6C-153.4 38 -142.4 -18.9 -115 -64.3C-87.6 -109.7 -43.8 -143.5 7 -147.5C57.7 -151.5 115.5 -125.8 137.9 -83.3Z" fill="none" stroke="#a9b9ac" stroke-width="20"></path></g><g transform="translate(158 13)"><path d="M85.1 -42.8C102.9 -18.3 104.9 21.7 88.1 53.5C71.3 85.4 35.6 109 2.8 107.4C-30.1 105.8 -60.2 79 -77.7 46.7C-95.2 14.5 -100.2 -23.1 -85.2 -46C-70.1 -68.9 -35.1 -77.1 -0.7 -76.7C33.6 -76.3 67.3 -67.3 85.1 -42.8Z" fill="none" stroke="#a9b9ac" stroke-width="20"></path></g><g transform="translate(832 502)"><path d="M105.2 -52.1C130.3 -17.2 140.5 34.9 120.5 69.7C100.5 104.5 50.2 121.9 1.9 120.8C-46.5 119.7 -92.9 100.1 -111.5 66.2C-130 32.3 -120.6 -15.9 -97.3 -49.8C-74.1 -83.6 -37 -103.1 1.5 -103.9C40 -104.8 80.1 -87.1 105.2 -52.1Z" fill="none" stroke="#a9b9ac" stroke-width="20"></path></g><g transform="translate(710 106)"><path d="M76.1 -45C92.8 -15 96.5 21.4 81.6 46C66.8 70.7 33.4 83.5 -2.7 85.1C-38.8 86.6 -77.6 76.9 -91.7 52.7C-105.8 28.5 -95.1 -10.1 -75.7 -41.7C-56.3 -73.2 -28.2 -97.7 0.8 -98.1C29.7 -98.6 59.4 -75 76.1 -45Z" fill="none" stroke="#a9b9ac" stroke-width="20"></path></g></g></svg>