<svg id="visual" viewBox="0 0 960 540" width="960" height="540" xmlns="http://www.w3.org/2000/svg" xmlns:xlink="http://www.w3.org/1999/xlink" version="1.1"><g><g transform="translate(594 13)"><path d="M100.2 -32.6C111.7 2.9 90.4 49 54.7 75C18.9 100.9 -31.4 106.7 -61.6 84.8C-91.8 62.8 -101.9 13.2 -88.3 -25.1C-74.7 -63.5 -37.3 -90.6 3.5 -91.7C44.3 -92.8 88.7 -68 100.2 -32.6Z" stroke="#a9b9ac" fill="none" stroke-width="20"></path></g><g transform="translate(723 462)"><path d="M67.6 -19.9C75.9 3.7 63 36.3 40.1 52.2C17.3 68 -15.5 67.2 -39.2 50.8C-62.8 34.3 -77.4 2.2 -69.3 -21C-61.3 -44.2 -30.6 -58.5 -0.5 -58.4C29.6 -58.2 59.2 -43.5 67.6 -19.9Z" stroke="#a9b9ac" fill="none" stroke-width="20"></path></g><g transform="translate(73 58)"><path d="M77.3 -22.1C87.5 6.2 74.2 45.1 48.4 62.9C22.6 80.8 -15.7 77.6 -43.2 57.9C-70.8 38.3 -87.5 2.2 -78.5 -24.5C-69.5 -51.2 -34.8 -68.5 -0.6 -68.3C33.6 -68.1 67.1 -50.4 77.3 -22.1Z" stroke="#a9b9ac" fill="none" stroke-width="20"></path></g><g transform="translate(306 537)"><path d="M72.2 -23.5C80.9 3.4 66.7 37.7 41.1 56.3C15.4 74.8 -21.5 77.6 -43.1 61.4C-64.8 45.2 -71.2 10 -61.5 -18.3C-51.8 -46.6 -25.9 -68 2.9 -68.9C31.7 -69.9 63.5 -50.4 72.2 -23.5Z" stroke="#a9b9ac" fill="none" stroke-width="20"></path></g><g transform="translate(369 200)"><path d="M60.2 -18.7C69 7.5 60.9 40.2 39.2 56.6C17.4 73 -18 73.3 -41.1 56.6C-64.1 39.8 -74.7 6 -65.8 -20.3C-56.9 -46.7 -28.4 -65.7 -1.4 -65.2C25.7 -64.8 51.4 -44.9 60.2 -18.7Z" stroke="#a9b9ac" fill="none" stroke-width="20"></path></g><g transform="translate(4 420)"><path d="M49.8 -15.6C57.2 6.7 51 34.1 33.3 47.3C15.6 60.5 -13.4 59.4 -33.1 45.2C-52.8 31 -63.1 3.6 -56 -18.2C-48.9 -40.1 -24.5 -56.3 -1.7 -55.7C21.2 -55.2 42.3 -37.9 49.8 -15.6Z" stroke="#a9b9ac" fill="none" stroke-width="20"></path></g><g transform="translate(923 104)"><path d="M81.6 -29.8C90.4 0.4 71.4 36.3 44.6 54.1C17.7 72 -17.1 71.7 -40.3 55C-63.4 38.3 -74.9 5.1 -66.2 -25C-57.6 -55.1 -28.8 -82.2 3.8 -83.4C36.4 -84.6 72.9 -60.1 81.6 -29.8Z" stroke="#a9b9ac" fill="none" stroke-width="20"></path></g></g></svg>