
<!--?xml version="1.0" standalone="no"?-->
<svg id="sw-js-blob-svg" viewBox="0 0 100 100" xmlns="http://www.w3.org/2000/svg" version="1.1">
    <defs>                         
        <linearGradient id="sw-gradient" x1="0" x2="1" y1="1" y2="0">
            <stop id="stop1" stop-color="rgba(169, 185, 172, 1)" offset="0%"></stop>
            <stop id="stop2" stop-color="rgba(223, 254, 109, 1)" offset="100%"></stop>
        </linearGradient>
    </defs>                
    <path fill="none" d="M15.3,-23.7C20.2,-17.5,24.9,-13.5,28.9,-7.8C32.9,-2.1,36.3,5.4,34.5,11.3C32.8,17.3,25.9,21.7,19.2,27.7C12.6,33.8,6.3,41.5,0.6,40.7C-5.1,39.9,-10.3,30.5,-16.5,24.4C-22.8,18.2,-30.1,15.2,-35.2,9.2C-40.3,3.1,-43.1,-5.9,-41.5,-14.3C-39.9,-22.8,-33.9,-30.6,-26.3,-35.9C-18.6,-41.2,-9.3,-44,-2.1,-41.2C5.2,-38.3,10.4,-29.9,15.3,-23.7Z" width="100%" height="100%" transform="translate(50 50)" stroke-width="1" style="transition: all 0.3s ease 0s;" stroke="url(#sw-gradient)"></path>
</svg>